<?xml version="1.0" encoding="UTF-8"?>
<!-- Generator: Adobe Illustrator 16.0.0, SVG Export Plug-In . SVG Version: 6.00 Build 0)  -->
<!DOCTYPE svg PUBLIC "-//W3C//DTD SVG 1.1//EN" "http://www.w3.org/Graphics/SVG/1.1/DTD/svg11.dtd">
<svg version="1.1" id="Layer_1" xmlns="http://www.w3.org/2000/svg" xmlns:xlink="http://www.w3.org/1999/xlink" x="0px" y="0px" width="100px" height="100px" viewBox="0 0 100 100" enable-background="new 0 0 100 100" xml:space="preserve">
<g opacity="0.5">
	<path fill="#FFFFFF" d="M82.469,6.661H17.621c-6.029,0-10.961,4.932-10.961,10.961v64.757c0,6.028,4.932,10.961,10.961,10.961   h64.757c6.029,0,10.961-4.933,10.961-10.961V17.622C93.43,11.593,88.498,6.661,82.469,6.661z M86.309,82.471   c0,2.098-1.736,3.928-3.931,3.928H17.621c-2.101,0-3.928-1.734-3.928-3.928V17.622c0-2.101,1.736-3.928,3.928-3.928h64.757   c2.103,0,3.931,1.736,3.931,3.928V82.471L86.309,82.471z"/>
	<path fill="#FFFFFF" d="M67.033,47.305l-25.39-16.897c-2.192-1.462-5.114,0.091-5.114,2.74v33.793c0,2.648,2.922,4.203,5.114,2.74   l25.391-16.896C69.042,51.509,69.042,48.583,67.033,47.305z"/>
</g>
</svg>