<svg width="36" height="15" viewBox="0 0 36 15" fill="none" xmlns="http://www.w3.org/2000/svg">
<path d="M0.378 4.006V1.78H4.256V12H1.764V4.006H0.378ZM5.89367 6.75C5.89367 5.14467 6.20167 3.88 6.81767 2.956C7.44301 2.032 8.44634 1.57 9.82767 1.57C11.209 1.57 12.2077 2.032 12.8237 2.956C13.449 3.88 13.7617 5.14467 13.7617 6.75C13.7617 8.374 13.449 9.648 12.8237 10.572C12.2077 11.496 11.209 11.958 9.82767 11.958C8.44634 11.958 7.44301 11.496 6.81767 10.572C6.20167 9.648 5.89367 8.374 5.89367 6.75ZM11.4097 6.75C11.4097 5.80733 11.307 5.084 11.1017 4.58C10.8963 4.06667 10.4717 3.81 9.82767 3.81C9.18367 3.81 8.75901 4.06667 8.55367 4.58C8.34834 5.084 8.24567 5.80733 8.24567 6.75C8.24567 7.38467 8.28301 7.912 8.35767 8.332C8.43234 8.74267 8.58167 9.07867 8.80567 9.34C9.03901 9.592 9.37967 9.718 9.82767 9.718C10.2757 9.718 10.6117 9.592 10.8357 9.34C11.069 9.07867 11.223 8.74267 11.2977 8.332C11.3723 7.912 11.4097 7.38467 11.4097 6.75ZM15.0265 6.75C15.0265 5.14467 15.3345 3.88 15.9505 2.956C16.5758 2.032 17.5792 1.57 18.9605 1.57C20.3418 1.57 21.3405 2.032 21.9565 2.956C22.5818 3.88 22.8945 5.14467 22.8945 6.75C22.8945 8.374 22.5818 9.648 21.9565 10.572C21.3405 11.496 20.3418 11.958 18.9605 11.958C17.5792 11.958 16.5758 11.496 15.9505 10.572C15.3345 9.648 15.0265 8.374 15.0265 6.75ZM20.5425 6.75C20.5425 5.80733 20.4398 5.084 20.2345 4.58C20.0292 4.06667 19.6045 3.81 18.9605 3.81C18.3165 3.81 17.8918 4.06667 17.6865 4.58C17.4812 5.084 17.3785 5.80733 17.3785 6.75C17.3785 7.38467 17.4158 7.912 17.4905 8.332C17.5652 8.74267 17.7145 9.07867 17.9385 9.34C18.1718 9.592 18.5125 9.718 18.9605 9.718C19.4085 9.718 19.7445 9.592 19.9685 9.34C20.2018 9.07867 20.3558 8.74267 20.4305 8.332C20.5052 7.912 20.5425 7.38467 20.5425 6.75ZM23.9633 4.356C23.9633 3.6 24.178 3.01667 24.6073 2.606C25.046 2.19533 25.6106 1.99 26.3013 1.99C26.992 1.99 27.552 2.19533 27.9813 2.606C28.4106 3.01667 28.6253 3.6 28.6253 4.356C28.6253 5.112 28.4106 5.69533 27.9813 6.106C27.552 6.51667 26.992 6.722 26.3013 6.722C25.6106 6.722 25.046 6.51667 24.6073 6.106C24.178 5.69533 23.9633 5.112 23.9633 4.356ZM33.4693 2.144L28.0793 12H25.7693L31.1593 2.144H33.4693ZM26.2873 3.39C25.8393 3.39 25.6153 3.712 25.6153 4.356C25.6153 4.99067 25.8393 5.308 26.2873 5.308C26.502 5.308 26.67 5.22867 26.7913 5.07C26.9126 4.91133 26.9733 4.67333 26.9733 4.356C26.9733 3.712 26.7446 3.39 26.2873 3.39ZM30.6273 9.788C30.6273 9.032 30.842 8.44867 31.2713 8.038C31.7006 7.62733 32.2606 7.422 32.9513 7.422C33.642 7.422 34.202 7.62733 34.6313 8.038C35.0606 8.44867 35.2753 9.032 35.2753 9.788C35.2753 10.544 35.0606 11.1273 34.6313 11.538C34.202 11.9487 33.642 12.154 32.9513 12.154C32.2606 12.154 31.7006 11.9487 31.2713 11.538C30.842 11.1273 30.6273 10.544 30.6273 9.788ZM32.9373 8.822C32.7226 8.822 32.5546 8.90133 32.4333 9.06C32.3213 9.21867 32.2653 9.46133 32.2653 9.788C32.2653 10.4227 32.4893 10.74 32.9373 10.74C33.152 10.74 33.32 10.6607 33.4413 10.502C33.5626 10.3433 33.6233 10.1053 33.6233 9.788C33.6233 9.47067 33.5626 9.23267 33.4413 9.074C33.32 8.906 33.152 8.822 32.9373 8.822Z" fill="white"/>
</svg>
