<svg width="177" height="60" viewBox="0 0 177 60" fill="none" xmlns="http://www.w3.org/2000/svg">
<path d="M95.7285 26.7115C95.1444 22.0786 98.4302 17.8077 103.25 17.2286C108.288 16.5771 112.377 20.3413 112.815 24.6123C113.326 29.6795 109.748 33.6609 105.221 34.1676C100.183 34.6743 96.2397 31.0549 95.7285 26.7115ZM115.663 0H115.006C114.422 0.289556 114.129 0.217167 113.618 0.72389C112.377 1.73734 112.815 4.34334 112.815 6.44262C112.815 7.8904 112.888 14.333 112.742 15.1293C110.405 13.6815 109.091 12.5957 105.659 12.2337C102.519 11.8718 99.5255 12.6681 97.408 13.9711C87.0392 20.0518 89.1567 34.5296 99.0874 38.2938C103.103 39.8139 107.412 39.5968 111.136 37.4251C111.866 36.9908 113.618 35.6878 113.91 35.2534L115.006 38.2214C116.028 40.6102 116.612 41.5513 118.073 43.6506C122.089 49.5865 128.806 53.8574 136.035 55.2328C137.277 55.45 138.518 55.5947 139.832 55.7395C141.293 55.8119 142.388 55.9567 143.264 55.1604C143.921 54.5089 144.506 53.2059 143.775 52.0477C143.118 50.9619 142.461 50.8171 140.782 50.7447C138.226 50.5999 135.743 50.1656 133.626 49.4417C130.705 48.4282 127.784 46.6909 125.667 44.7364C125.009 44.1573 124.06 43.2886 123.549 42.6371C123.257 42.2028 122.965 41.9132 122.6 41.4789C120.409 38.8729 118.73 34.6019 118.146 31.1997C117.634 28.0869 117.853 18.4592 117.853 14.695C117.853 13.392 117.926 2.89556 117.78 2.09928C117.561 0.361945 116.028 0.144778 115.663 0Z" fill="white"/>
<path d="M12.9975 17.1562C15.6992 16.7943 17.8168 18.0249 19.3502 19.1831C24.6806 23.2369 22.7091 33.4438 14.5309 34.1677C9.49255 34.602 5.69553 30.9102 5.18439 26.4944C4.67325 21.8615 7.95913 17.8077 12.9975 17.1562ZM0 2.31649V26.0601C0.219059 26.4944 0.07302 30.8378 3.21286 34.3848C9.93066 41.9857 21.3947 40.3207 25.8489 31.9236C30.4492 23.2369 24.1695 12.2338 13.9467 12.1614C12.0482 12.1614 10.4418 12.3786 8.90839 13.0301C7.59404 13.5368 7.15592 13.8263 6.06063 14.4778C5.76855 14.695 5.47647 14.9122 5.18439 15.1293C4.96533 13.2472 5.33043 4.19861 5.11137 2.2441C4.89231 0.651545 3.724 0.434378 2.9938 4.34759e-05H2.26361C1.53341 0.361989 1.31435 0.217211 0.730196 0.723934C0.219059 1.23066 0.365098 1.5926 0 2.31649Z" fill="white"/>
<path d="M53.448 26.9294C52.7908 31.2003 48.8478 34.8198 43.6634 34.0959C39.4282 33.5168 35.6312 29.463 36.4344 24.3234C37.0916 20.1248 41.1077 16.5053 46.146 17.2292C50.5272 17.8807 54.1782 21.7897 53.448 26.9294ZM53.521 36.2675C53.594 40.2489 58.4864 39.9594 58.6324 36.6295C58.7054 35.4713 58.6324 34.2407 58.6324 33.01C58.6324 28.2324 59.1435 23.889 57.3911 19.98C53.521 11.3657 40.9616 9.04928 34.3169 17.1569C33.2216 18.4599 32.4184 19.9076 31.8342 21.7897C30.6659 25.4816 31.3231 30.1145 33.5867 33.2272C38.0409 39.3803 45.854 41.1176 52.3527 37.0638C52.7908 36.7743 53.0099 36.4847 53.521 36.2675Z" fill="white"/>
<path d="M145.892 26.4954C145.381 30.9836 141.584 34.603 136.473 34.0963C132.018 33.662 128.294 29.7529 128.806 24.6857C129.244 20.3424 133.26 16.6505 138.298 17.1573C142.679 17.664 146.476 21.573 145.892 26.4954ZM135.304 12.3072C131.142 12.9587 128.513 14.9856 126.615 17.302C122.088 22.7312 122.745 31.4179 128.806 36.268C131.288 38.2225 135.085 39.7426 139.32 39.0911C146.111 38.0777 152.026 31.8522 150.857 23.7447C149.835 16.2886 142.606 11.0766 135.304 12.3072Z" fill="white"/>
<path d="M165.098 19.9798C168.529 19.3283 171.304 21.862 171.815 24.6127C172.4 28.0874 169.917 30.8382 167.142 31.2725C161.958 32.1412 158.307 26.4949 161.52 22.0791C162.177 21.1381 163.418 20.3418 165.098 19.9798ZM177 26.6396V24.8299C176.635 24.0336 176.854 21.862 174.809 19.1836C172.765 16.5776 169.844 14.8402 165.828 14.9126C162.542 14.985 159.986 16.5052 158.453 18.0977C156.846 19.6903 155.313 22.2239 155.24 25.5538C155.021 36.4845 170.063 40.9003 175.685 30.7658C176.854 28.5941 176.781 27.2187 177 26.6396Z" fill="white"/>
<path d="M68.8589 0H68.1287C67.6176 0.289556 66.7413 0.361945 66.1572 1.52017C65.7921 2.31645 65.9381 3.69184 65.9381 4.6329C65.9381 11.4375 66.0842 18.7488 65.9381 25.4085C65.8651 27.363 66.3762 29.5347 67.0334 31.0549C67.8366 32.8646 68.6398 33.8781 69.8082 35.1811C70.9034 36.3393 72.1448 37.2803 73.8972 38.0766C75.4307 38.8005 77.5482 39.3796 79.6658 39.3796C81.6373 39.3072 83.0247 37.2803 81.8564 35.543C81.4183 34.8915 80.8341 34.3848 79.6658 34.3848C74.4814 34.0952 71.1225 30.5482 71.0495 25.5533V4.85006C71.0495 3.83662 71.1955 2.53362 70.8304 1.66495C70.3193 0.361945 69.37 0.217167 68.8589 0Z" fill="white"/>
<path d="M81.6333 10.1358C79.5887 10.6425 79.5157 11.5836 79.5157 13.9V25.627C79.5157 27.7987 81.1221 28.7398 82.6556 28.3778C83.3857 28.233 84.0429 27.6539 84.335 27.1472C84.7001 26.4233 84.6271 25.5546 84.6271 24.5412V12.8142C84.5541 11.1492 83.3127 9.70145 81.6333 10.1358Z" fill="white"/>
<path d="M82.4392 0H81.709C81.1249 0.289556 78.7152 0.579113 78.7883 3.40228C78.8613 5.13962 80.2486 6.51501 82.0011 6.51501C83.8266 6.51501 85.214 5.13962 85.287 3.47467C85.36 2.09928 84.6298 1.01345 83.6075 0.361945C83.2424 0.217167 82.8043 0.144778 82.4392 0Z" fill="white"/>
<path d="M9.442 59.0001L5.194 53.4201V59.0001H2.116V46.3641H5.194V51.9081L9.406 46.3641H13.024L8.128 52.5561L13.204 59.0001H9.442Z" fill="white"/>
<path d="M17.7448 46.3641V59.0001H14.6668V46.3641H17.7448Z" fill="white"/>
<path d="M24.7094 46.3641C26.0414 46.3641 27.2054 46.6281 28.2014 47.1561C29.1974 47.6841 29.9654 48.4281 30.5054 49.3881C31.0574 50.3361 31.3334 51.4341 31.3334 52.6821C31.3334 53.9181 31.0574 55.0161 30.5054 55.9761C29.9654 56.9361 29.1914 57.6801 28.1834 58.2081C27.1874 58.7361 26.0294 59.0001 24.7094 59.0001H19.9754V46.3641H24.7094ZM24.5114 56.3361C25.6754 56.3361 26.5814 56.0181 27.2294 55.3821C27.8774 54.7461 28.2014 53.8461 28.2014 52.6821C28.2014 51.5181 27.8774 50.6121 27.2294 49.9641C26.5814 49.3161 25.6754 48.9921 24.5114 48.9921H23.0534V56.3361H24.5114Z" fill="white"/>
<path d="M37.6255 59.1261C36.7015 59.1261 35.8735 58.9761 35.1415 58.6761C34.4095 58.3761 33.8215 57.9321 33.3775 57.3441C32.9455 56.7561 32.7175 56.0481 32.6935 55.2201H35.9695C36.0175 55.6881 36.1795 56.0481 36.4555 56.3001C36.7315 56.5401 37.0915 56.6601 37.5355 56.6601C37.9915 56.6601 38.3515 56.5581 38.6155 56.3541C38.8795 56.1381 39.0115 55.8441 39.0115 55.4721C39.0115 55.1601 38.9035 54.9021 38.6875 54.6981C38.4835 54.4941 38.2255 54.3261 37.9135 54.1941C37.6135 54.0621 37.1815 53.9121 36.6175 53.7441C35.8015 53.4921 35.1355 53.2401 34.6195 52.9881C34.1035 52.7361 33.6595 52.3641 33.2875 51.8721C32.9155 51.3801 32.7295 50.7381 32.7295 49.9461C32.7295 48.7701 33.1555 47.8521 34.0075 47.1921C34.8595 46.5201 35.9695 46.1841 37.3375 46.1841C38.7295 46.1841 39.8515 46.5201 40.7035 47.1921C41.5555 47.8521 42.0115 48.7761 42.0715 49.9641H38.7415C38.7175 49.5561 38.5675 49.2381 38.2915 49.0101C38.0155 48.7701 37.6615 48.6501 37.2295 48.6501C36.8575 48.6501 36.5575 48.7521 36.3295 48.9561C36.1015 49.1481 35.9875 49.4301 35.9875 49.8021C35.9875 50.2101 36.1795 50.5281 36.5635 50.7561C36.9475 50.9841 37.5475 51.2301 38.3635 51.4941C39.1795 51.7701 39.8395 52.0341 40.3435 52.2861C40.8595 52.5381 41.3035 52.9041 41.6755 53.3841C42.0475 53.8641 42.2335 54.4821 42.2335 55.2381C42.2335 55.9581 42.0475 56.6121 41.6755 57.2001C41.3155 57.7881 40.7875 58.2561 40.0915 58.6041C39.3955 58.9521 38.5735 59.1261 37.6255 59.1261Z" fill="white"/>
</svg>
