<svg xmlns="http://www.w3.org/2000/svg" viewBox="0 0 177 58.0981">
  <title>balidoo-underwear-logo-black</title>
  <path d="M95.7285,26.7115a8.60823,8.60823,0,0,1,17.0865-2.0992,8.60762,8.60762,0,0,1-17.0865,2.0992ZM115.663,0h-.657c-.584.28956-.877.21717-1.388.72389-1.241,1.01345-.803,3.61945-.803,5.71873,0,1.44778.073,7.89038-.073,8.68668-2.337-1.4478-3.651-2.5336-7.083-2.8956a13.1842,13.1842,0,0,0-8.251,1.7374,13.5312,13.5312,0,0,0,1.6794,24.3227,13.82917,13.82917,0,0,0,12.0486-.8687,15.28682,15.28682,0,0,0,2.774-2.1717l1.096,2.968a24.80325,24.80325,0,0,0,3.067,5.4292,28.35979,28.35979,0,0,0,17.962,11.5822c1.242.2172,2.483.3619,3.797.5067,1.461.0724,2.556.2172,3.432-.5791a2.5491,2.5491,0,0,0,.511-3.1127c-.657-1.0858-1.314-1.2306-2.993-1.303a27.28993,27.28993,0,0,1-7.156-1.303,23.59382,23.59382,0,0,1-7.959-4.7053,19.16217,19.16217,0,0,1-2.118-2.0993,13.2388,13.2388,0,0,0-.949-1.1582,23.69141,23.69141,0,0,1-4.454-10.2792c-.512-3.1128-.293-12.7405-.293-16.5047,0-1.303.073-11.79944-.073-12.59572A2.5049,2.5049,0,0,0,115.663,0Z"/>
  <path d="M12.9975,17.1562a8.51679,8.51679,0,0,1,6.3527,2.0269c5.3304,4.0538,3.3589,14.2607-4.8193,14.9846a8.59987,8.59987,0,0,1-9.34651-7.6733C4.67325,21.8615,7.95913,17.8077,12.9975,17.1562ZM0,2.31649V26.0601c.21906.4343.073,4.7777,3.21286,8.3247a13.72754,13.72754,0,0,0,22.636-2.4612A13.56257,13.56257,0,0,0,13.9467,12.1614a12.4913,12.4913,0,0,0-5.03831.8687,14.92669,14.92669,0,0,0-2.84776,1.4477q-.43812.3258-.87624.6515c-.21906-1.8821.146-10.93069-.073-12.8852C4.89231.65154,3.724.43438,2.9938,0H2.26361C1.53341.362,1.31435.21721.7302.72393.21906,1.23066.3651,1.5926,0,2.31649Z"/>
  <path d="M53.448,26.9294a8.6069,8.6069,0,1,1-7.302-9.7002A8.56061,8.56061,0,0,1,53.448,26.9294Zm.073,9.3381c.073,3.9814,4.9654,3.6919,5.1114.362.073-1.1582,0-2.3888,0-3.6195,0-4.7776.5111-9.121-1.2413-13.03a13.80866,13.80866,0,0,0-23.0742-2.8231,12.8364,12.8364,0,0,0-2.4827,4.6328,13.47674,13.47674,0,0,0,1.7525,11.4375c4.4542,6.1531,12.2673,7.8904,18.766,3.8366A6.625,6.625,0,0,1,53.521,36.2675Z"/>
  <path d="M145.892,26.4954a8.59088,8.59088,0,0,1-17.086-1.8097,8.59143,8.59143,0,0,1,17.086,1.8097ZM135.304,12.3072a13.5156,13.5156,0,0,0-6.498,23.9608,13.79192,13.79192,0,0,0,10.514,2.8231,13.54241,13.54241,0,1,0-4.016-26.7839Z"/>
  <path d="M165.098,19.9798a5.8066,5.8066,0,0,1,6.717,4.6329,5.84928,5.84928,0,1,1-6.717-4.6329ZM177,26.6396V24.8299c-.365-.7963-.146-2.9679-2.191-5.6463a10.91692,10.91692,0,0,0-19.569,6.3702c-.219,10.9307,14.823,15.3465,20.445,5.212A13.47505,13.47505,0,0,0,177,26.6396Z"/>
  <path d="M68.8589,0h-.7302c-.5111.28956-1.3874.362-1.9715,1.52017a8.73312,8.73312,0,0,0-.2191,3.11273c0,6.8046.146,14.1159,0,20.7756a13.92283,13.92283,0,0,0,1.0953,5.6464,14.164,14.164,0,0,0,2.7748,4.1262,12.49174,12.49174,0,0,0,4.089,2.8955,14.08474,14.08474,0,0,0,5.7686,1.303,2.49731,2.49731,0,0,0,2.1906-3.8366,2.383,2.383,0,0,0-2.1906-1.1582c-5.1844-.2896-8.5433-3.8366-8.6163-8.8315V4.85006A9.1435,9.1435,0,0,0,70.8304,1.665,2.73287,2.73287,0,0,0,68.8589,0Z"/>
  <path d="M81.6333,10.1358c-2.0446.5067-2.1176,1.4478-2.1176,3.7642V25.627a2.52887,2.52887,0,0,0,3.1399,2.7508,2.72018,2.72018,0,0,0,1.6794-1.2306,5.84775,5.84775,0,0,0,.2921-2.606V12.8142C84.5541,11.1492,83.3127,9.70145,81.6333,10.1358Z"/>
  <path d="M82.4392,0H81.709c-.5841.28956-2.9938.57911-2.9207,3.40228a3.2544,3.2544,0,0,0,6.4987.07239A3.43231,3.43231,0,0,0,83.6075.362C83.2424.21717,82.8043.14478,82.4392,0Z"/>
  <path d="M4.22,48.1721v5.88a1.94553,1.94553,0,0,0,.434,1.358,1.63728,1.63728,0,0,0,1.274.476,1.68333,1.68333,0,0,0,1.288-.476,1.90648,1.90648,0,0,0,.448-1.358v-5.88h2.394v5.866a4.1701,4.1701,0,0,1-.56,2.226,3.576,3.576,0,0,1-1.512,1.372,4.68848,4.68848,0,0,1-2.1.462,4.71989,4.71989,0,0,1-2.086-.448,3.4581,3.4581,0,0,1-1.442-1.372,4.42032,4.42032,0,0,1-.532-2.24v-5.866Z"/>
  <path d="M20.5311,58.0001h-2.394l-4.004-6.062v6.062h-2.394v-9.828h2.394l4.004,6.09v-6.09h2.394Z"/>
  <path d="M25.9484,48.1721a5.71709,5.71709,0,0,1,2.716.616,4.34289,4.34289,0,0,1,1.792,1.736,5.41815,5.41815,0,0,1,0,5.124,4.322,4.322,0,0,1-1.806,1.736,5.68462,5.68462,0,0,1-2.702.616h-3.682v-9.828Zm-.154,7.756a2.88908,2.88908,0,0,0,2.114-.742,2.8092,2.8092,0,0,0,.756-2.1,2.62459,2.62459,0,0,0-2.87-2.87h-1.134v5.712Z"/>
  <path d="M34.8323,50.0901v1.988h3.206v1.848h-3.206v2.156h3.626v1.918h-6.02v-9.828h6.02v1.918Z"/>
  <path d="M45.0245,58.0001l-2.044-3.71h-.574v3.71h-2.394v-9.828h4.018a4.379,4.379,0,0,1,1.974.406,2.77657,2.77657,0,0,1,1.232,1.12,3.06773,3.06773,0,0,1,.406,1.568,2.8997,2.8997,0,0,1-.56,1.75,2.94028,2.94028,0,0,1-1.624,1.092l2.268,3.892Zm-2.618-5.404h1.484a1.33278,1.33278,0,0,0,.98-.322,1.2009,1.2009,0,0,0,.336-.91,1.164,1.164,0,0,0-.336-.882,1.3332,1.3332,0,0,0-.98-.322h-1.484Z"/>
  <path d="M62.6693,48.1721l-2.562,9.828h-2.898l-1.568-6.468-1.624,6.468h-2.898l-2.492-9.828h2.562l1.414,7.154,1.75-7.154h2.632l1.68,7.154,1.428-7.154Z"/>
  <path d="M66.264,50.0901v1.988H69.47v1.848H66.264v2.156H69.89v1.918H63.87v-9.828h6.02v1.918Z"/>
  <path d="M77.5622,56.2641h-3.668l-.588,1.736h-2.506l3.556-9.828h2.772l3.556,9.828h-2.534Zm-.616-1.848-1.218-3.598-1.204,3.598Z"/>
  <path d="M86.7784,58.0001l-2.044-3.71h-.574v3.71h-2.394v-9.828h4.018a4.379,4.379,0,0,1,1.974.406,2.77657,2.77657,0,0,1,1.232,1.12,3.06773,3.06773,0,0,1,.406,1.568,2.8997,2.8997,0,0,1-.56,1.75,2.94028,2.94028,0,0,1-1.624,1.092l2.268,3.892Zm-2.618-5.404h1.484a1.33278,1.33278,0,0,0,.98-.322,1.2009,1.2009,0,0,0,.336-.91,1.164,1.164,0,0,0-.336-.882,1.3332,1.3332,0,0,0-.98-.322h-1.484Z"/>
</svg>
