<svg xmlns="http://www.w3.org/2000/svg" viewBox="0 0 177 59.1261">
  <title>balidoo-kids-logo-black</title>
  <path d="M95.7285,26.7115a8.60823,8.60823,0,0,1,17.0865-2.0992,8.60762,8.60762,0,0,1-17.0865,2.0992ZM115.663,0h-.657c-.584.28956-.877.21717-1.388.72389-1.241,1.01345-.803,3.61945-.803,5.71873,0,1.44778.073,7.89038-.073,8.68668-2.337-1.4478-3.651-2.5336-7.083-2.8956a13.1842,13.1842,0,0,0-8.251,1.7374,13.5312,13.5312,0,0,0,1.6794,24.3227,13.82917,13.82917,0,0,0,12.0486-.8687,15.28682,15.28682,0,0,0,2.774-2.1717l1.096,2.968a24.80325,24.80325,0,0,0,3.067,5.4292,28.35979,28.35979,0,0,0,17.962,11.5822c1.242.2172,2.483.3619,3.797.5067,1.461.0724,2.556.2172,3.432-.5791a2.5491,2.5491,0,0,0,.511-3.1127c-.657-1.0858-1.314-1.2306-2.993-1.303a27.28993,27.28993,0,0,1-7.156-1.303,23.59382,23.59382,0,0,1-7.959-4.7053,19.16217,19.16217,0,0,1-2.118-2.0993,13.2388,13.2388,0,0,0-.949-1.1582,23.69141,23.69141,0,0,1-4.454-10.2792c-.512-3.1128-.293-12.7405-.293-16.5047,0-1.303.073-11.79944-.073-12.59572A2.5049,2.5049,0,0,0,115.663,0Z"/>
  <path d="M12.9975,17.1562a8.51679,8.51679,0,0,1,6.3527,2.0269c5.3304,4.0538,3.3589,14.2607-4.8193,14.9846a8.59987,8.59987,0,0,1-9.34651-7.6733C4.67325,21.8615,7.95913,17.8077,12.9975,17.1562ZM0,2.31649V26.0601c.21906.4343.073,4.7777,3.21286,8.3247a13.72754,13.72754,0,0,0,22.636-2.4612A13.56257,13.56257,0,0,0,13.9467,12.1614a12.4913,12.4913,0,0,0-5.03831.8687,14.92669,14.92669,0,0,0-2.84776,1.4477q-.43812.3258-.87624.6515c-.21906-1.8821.146-10.93069-.073-12.8852C4.89231.65154,3.724.43438,2.9938,0H2.26361C1.53341.362,1.31435.21721.7302.72393.21906,1.23066.3651,1.5926,0,2.31649Z"/>
  <path d="M53.448,26.9294a8.6069,8.6069,0,1,1-7.302-9.7002A8.56061,8.56061,0,0,1,53.448,26.9294Zm.073,9.3381c.073,3.9814,4.9654,3.6919,5.1114.362.073-1.1582,0-2.3888,0-3.6195,0-4.7776.5111-9.121-1.2413-13.03a13.80866,13.80866,0,0,0-23.0742-2.8231,12.8364,12.8364,0,0,0-2.4827,4.6328,13.47674,13.47674,0,0,0,1.7525,11.4375c4.4542,6.1531,12.2673,7.8904,18.766,3.8366A6.625,6.625,0,0,1,53.521,36.2675Z"/>
  <path d="M145.892,26.4954a8.59088,8.59088,0,0,1-17.086-1.8097,8.59143,8.59143,0,0,1,17.086,1.8097ZM135.304,12.3072a13.5156,13.5156,0,0,0-6.498,23.9608,13.79192,13.79192,0,0,0,10.514,2.8231,13.54241,13.54241,0,1,0-4.016-26.7839Z"/>
  <path d="M165.098,19.9798a5.80715,5.80715,0,0,1,6.717,4.6329,5.84928,5.84928,0,1,1-6.717-4.6329ZM177,26.6396V24.8299c-.365-.7963-.146-2.9679-2.191-5.6463a10.91692,10.91692,0,0,0-19.569,6.3702c-.219,10.9307,14.823,15.3465,20.445,5.212A13.47505,13.47505,0,0,0,177,26.6396Z"/>
  <path d="M68.8589,0h-.7302c-.5111.28956-1.3874.362-1.9715,1.52017a8.73312,8.73312,0,0,0-.2191,3.11273c0,6.8046.1461,14.1159,0,20.7756a13.92283,13.92283,0,0,0,1.0953,5.6464,14.164,14.164,0,0,0,2.7748,4.1262,12.49174,12.49174,0,0,0,4.089,2.8955,14.08474,14.08474,0,0,0,5.7686,1.303,2.49731,2.49731,0,0,0,2.1906-3.8366,2.383,2.383,0,0,0-2.1906-1.1582c-5.1844-.2896-8.5433-3.8366-8.6163-8.8315V4.85006A9.1435,9.1435,0,0,0,70.8304,1.665,2.73287,2.73287,0,0,0,68.8589,0Z"/>
  <path d="M81.6333,10.1358c-2.0446.5067-2.1176,1.4478-2.1176,3.7642V25.627a2.52887,2.52887,0,0,0,3.1399,2.7508,2.72046,2.72046,0,0,0,1.6794-1.2306,5.84775,5.84775,0,0,0,.2921-2.606V12.8142C84.5541,11.1492,83.3127,9.70145,81.6333,10.1358Z"/>
  <path d="M82.4392,0H81.709c-.5841.28956-2.9938.57911-2.9207,3.40228a3.2544,3.2544,0,0,0,6.4987.07239A3.43231,3.43231,0,0,0,83.6075.362C83.2424.21717,82.8043.14478,82.4392,0Z"/>
  <path d="M9.442,59.0001l-4.248-5.58v5.58H2.116V46.3641H5.194v5.544l4.212-5.544h3.618l-4.896,6.192,5.076,6.444Z"/>
  <path d="M17.7448,46.3641v12.636h-3.078V46.3641Z"/>
  <path d="M24.7094,46.3641a7.34978,7.34978,0,0,1,3.492.792,5.58318,5.58318,0,0,1,2.304,2.232,6.9662,6.9662,0,0,1,0,6.588,5.55762,5.55762,0,0,1-2.322,2.232,7.30967,7.30967,0,0,1-3.474.792h-4.734V46.3641Zm-.198,9.972a3.71484,3.71484,0,0,0,2.718-.954,3.61209,3.61209,0,0,0,.972-2.7,3.37447,3.37447,0,0,0-3.69-3.69h-1.458v7.344Z"/>
  <path d="M37.6255,59.1261a6.5,6.5,0,0,1-2.484-.45,4.11164,4.11164,0,0,1-1.764-1.332,3.67557,3.67557,0,0,1-.684-2.124h3.276a1.62584,1.62584,0,0,0,.486,1.08,1.58671,1.58671,0,0,0,1.08.36,1.72414,1.72414,0,0,0,1.08-.306,1.079,1.079,0,0,0,.396-.882,1.019,1.019,0,0,0-.324-.774,2.40255,2.40255,0,0,0-.774-.504,11.69722,11.69722,0,0,0-1.296-.45,14.20935,14.20935,0,0,1-1.998-.756,3.69166,3.69166,0,0,1-1.332-1.116,3.10956,3.10956,0,0,1-.558-1.926,3.28712,3.28712,0,0,1,1.278-2.754,5.219,5.219,0,0,1,3.33-1.008,5.27918,5.27918,0,0,1,3.366,1.008,3.54876,3.54876,0,0,1,1.368,2.772h-3.33a1.27256,1.27256,0,0,0-.45-.954,1.56,1.56,0,0,0-1.062-.36,1.299,1.299,0,0,0-.9.306,1.04367,1.04367,0,0,0-.342.846,1.05984,1.05984,0,0,0,.576.954,9.44212,9.44212,0,0,0,1.8.738,16.03635,16.03635,0,0,1,1.98.792,3.7622,3.7622,0,0,1,1.332,1.098,2.93922,2.93922,0,0,1,.558,1.854,3.59443,3.59443,0,0,1-.558,1.962,3.78226,3.78226,0,0,1-1.584,1.404A5.45339,5.45339,0,0,1,37.6255,59.1261Z"/>
</svg>
