<?xml version="1.0" encoding="utf-8"?>
<!-- Generator: Adobe Illustrator 24.0.2, SVG Export Plug-In . SVG Version: 6.00 Build 0)  -->
<svg version="1.1" id="Layer_1" xmlns="http://www.w3.org/2000/svg" xmlns:xlink="http://www.w3.org/1999/xlink" x="0px" y="0px"
	 width="300.5px" height="97.4px" viewBox="0 0 300.5 97.4" style="enable-background:new 0 0 300.5 97.4;" xml:space="preserve">
<style type="text/css">
	.st0{fill-rule:evenodd;clip-rule:evenodd;fill:#FFFDFD;}
	.st1{enable-background:new    ;}
	.st2{fill:#FFFDFD;}
</style>
<path class="st0" d="M186.4,8h-1c-0.9,0.5-1.3,0.4-2.1,1.1c-1.9,1.6-1.2,5.6-1.2,8.7c0,2.2,0.1,12.1-0.1,13.3
	c-3.6-2.2-5.5-3.9-10.8-4.4c-4.8-0.5-9.4,0.7-12.6,2.6c-15.8,9.3-12.6,31.6,2.6,37.4c6.1,2.3,12.6,2,18.3-1.4
	c1.1-0.7,3.8-2.6,4.2-3.3l1.7,4.6c1.5,3.7,2.5,5.2,4.6,8.3c6.2,9.1,16.4,15.6,27.4,17.8c1.9,0.4,3.7,0.6,5.7,0.7
	c2.2,0.2,3.9,0.3,5.3-0.9c1.1-1,1.8-3,0.8-4.8c-1-1.6-2.1-1.8-4.5-1.9c-3.9-0.2-7.6-0.8-10.9-2c-4.4-1.6-8.9-4.2-12.1-7.2
	c-1-0.9-2.4-2.2-3.2-3.3c-0.5-0.6-0.9-1.1-1.4-1.8c-3.3-4-5.9-10.6-6.8-15.8c-0.8-4.8-0.5-19.6-0.5-25.3c0-2,0.1-18.1-0.1-19.4
	C189.3,8.6,187,8.2,186.4,8 M156,49c-0.8-7.1,4.1-13.6,11.4-14.6c7.7-1,13.9,4.8,14.6,11.4c0.8,7.8-4.7,13.9-11.5,14.6
	C162.9,61.2,156.8,55.7,156,49z"/>
<path class="st0" d="M10.4,11.6V48c0.3,0.7,0.1,7.3,4.9,12.8c10.2,11.7,27.7,9.1,34.5-3.8c7-13.3-2.5-30.2-18.1-30.4
	c-2.9,0-5.3,0.4-7.7,1.3c-2,0.8-2.6,1.2-4.4,2.3c-0.5,0.3-0.9,0.7-1.3,1c-0.4-2.9,0.3-16.8-0.1-19.8C17.9,9,16.1,8.6,15,8h-1.1
	c-1.1,0.5-1.5,0.3-2.3,1.2C10.8,10,10.9,10.5,10.4,11.6 M30.1,34.4c4.1-0.5,7.3,1.3,9.7,3.1c8.1,6.2,5.1,21.9-7.4,23
	c-7.7,0.7-13.5-5-14.2-11.8C17.5,41.6,22.5,35.4,30.1,34.4z"/>
<path class="st0" d="M91.8,63.8c0.1,6.1,7.6,5.7,7.8,0.5c0.1-1.8,0-3.7,0-5.5c0-7.3,0.8-14-1.9-20c-5.9-13.2-25-16.8-35-4.3
	c-1.7,2-2.9,4.2-3.8,7.1c-1.7,5.6-0.7,12.8,2.7,17.5c6.8,9.5,18.7,12.1,28.6,5.9C90.8,64.5,91.1,64.1,91.8,63.8 M91.7,49.4
	c-1,6.6-7,12.1-14.8,11c-6.4-0.9-12.2-7.1-11-15c1-6.4,7.1-12,14.8-10.9C87.2,35.4,92.9,41.5,91.7,49.4z"/>
<path class="st0" d="M216.3,26.9c-6.3,1-10.4,4.1-13.2,7.6c-6.9,8.3-5.9,21.6,3.3,29.1c3.7,3.1,9.5,5.3,16.1,4.4
	c10.3-1.5,19.3-11.2,17.6-23.5C238.4,33,227.4,25,216.3,26.9 M232.4,48.8c-0.8,6.8-6.5,12.4-14.3,11.7c-6.8-0.6-12.4-6.7-11.7-14.5
	c0.6-6.6,6.8-12.4,14.4-11.5C227.5,35.2,233.3,41.2,232.4,48.8z"/>
<path class="st0" d="M279.8,49v-2.8c-0.5-1.2-0.2-4.6-3.4-8.7c-3.1-4-7.5-6.7-13.7-6.6c-5,0.1-8.9,2.5-11.3,4.9
	c-2.5,2.5-4.8,6.4-4.8,11.4c-0.3,16.8,22.6,23.7,31.2,8C279.6,52,279.4,49.9,279.8,49 M261.7,38.7c5.2-1,9.5,2.9,10.2,7.2
	c0.9,5.4-2.9,9.5-7.2,10.3c-7.9,1.4-13.4-7.3-8.6-14.1C257.2,40.5,259.1,39.2,261.7,38.7z"/>
<path class="st0" d="M115.2,8h-1.1c-0.7,0.4-2.1,0.6-2.9,2.3c-0.6,1.2-0.4,3.3-0.4,4.8c0,10.4,0.2,21.6,0,31.8
	c-0.1,3,0.7,6.3,1.7,8.7c1.3,2.8,2.4,4.4,4.2,6.3c1.6,1.7,3.5,3.2,6.2,4.5c2.3,1.1,5.5,2,8.7,1.9c3-0.1,5.1-3.2,3.4-5.9
	c-0.7-1-1.6-1.7-3.4-1.8c-7.9-0.4-13-5.8-13.1-13.6l0-31.8c0-1.6,0.2-3.6-0.3-4.9C117.4,8.5,116,8.4,115.2,8"/>
<path class="st0" d="M134.6,23.6c-3.1,0.7-3.2,2.3-3.2,5.8v18c0,3.3,2.4,4.7,4.8,4.2c1.1-0.2,2.1-1.1,2.5-1.9c0.6-1.1,0.4-2.4,0.4-4
	v-18C139.1,25.1,137.2,23,134.6,23.6"/>
<path class="st0" d="M135.8,8h-1.1c-0.9,0.4-4.5,0.9-4.4,5.2c0.1,2.6,2.2,4.7,4.9,4.8c2.8,0,4.9-2.1,5-4.6c0.1-2.2-0.9-3.8-2.6-4.7
	C137.1,8.3,136.4,8.3,135.8,8"/>
<g class="st1">
	<path class="st2" d="M22,92.6c-1.2,1.1-2.8,1.7-4.7,1.7c-2.4,0-4.2-0.8-5.6-2.3c-1.4-1.5-2-3.6-2-6.3c0-2.9,0.8-5.1,2.3-6.6
		c1.3-1.4,3-2,5.1-2c2.8,0,4.8,0.9,6.1,2.7c0.7,1,1.1,2,1.1,3.1h-3.4c-0.2-0.8-0.5-1.4-0.9-1.8c-0.6-0.7-1.6-1.1-2.8-1.1
		c-1.2,0-2.2,0.5-3,1.5c-0.7,1-1.1,2.4-1.1,4.3c0,1.8,0.4,3.2,1.1,4.1c0.8,0.9,1.7,1.4,2.9,1.4c1.2,0,2.1-0.4,2.8-1.2
		c0.3-0.4,0.6-1.1,0.9-1.9h3.4C24,90,23.2,91.5,22,92.6z"/>
	<path class="st2" d="M34.2,94.3c-2.4,0-4.1-0.6-5.4-1.9c-1.7-1.6-2.5-3.8-2.5-6.8c0-3,0.8-5.3,2.5-6.8c1.2-1.3,3-1.9,5.4-1.9
		c2.3,0,4.1,0.6,5.4,1.9c1.7,1.5,2.5,3.8,2.5,6.8c0,3-0.8,5.2-2.5,6.8C38.3,93.7,36.5,94.3,34.2,94.3z M37.4,89.9
		c0.8-1,1.2-2.4,1.2-4.3c0-1.8-0.4-3.3-1.2-4.3c-0.8-1-1.9-1.5-3.2-1.5c-1.4,0-2.4,0.5-3.3,1.5s-1.2,2.4-1.2,4.3
		c0,1.9,0.4,3.3,1.2,4.3s1.9,1.5,3.3,1.5C35.5,91.4,36.6,90.9,37.4,89.9z"/>
	<path class="st2" d="M51.7,87.4h-3.5v6.4h-3.4V77.4h8.1c1.2,0,2,0.2,2.7,0.4c0.6,0.3,1.1,0.6,1.6,1.1c0.4,0.4,0.6,0.9,0.8,1.4
		c0.2,0.5,0.3,1.1,0.3,1.7c0,0.8-0.2,1.5-0.6,2.3c-0.4,0.8-1,1.3-2,1.6c0.8,0.3,1.3,0.7,1.6,1.3c0.3,0.6,0.5,1.4,0.5,2.6V91
		c0,0.8,0,1.3,0.1,1.5c0.1,0.4,0.3,0.7,0.6,0.9v0.4h-3.8c-0.1-0.4-0.2-0.7-0.2-0.9c-0.1-0.5-0.1-0.9-0.1-1.4l0-1.5
		c0-1-0.2-1.7-0.6-2.1S52.7,87.4,51.7,87.4z M53.7,84.4c0.7-0.3,1-0.9,1-1.9c0-1-0.3-1.7-1-2c-0.4-0.2-0.9-0.3-1.7-0.3h-4v4.4H52
		C52.8,84.7,53.4,84.6,53.7,84.4z"/>
	<path class="st2" d="M68.2,87.9h-3.5v5.9h-3.4V77.4h7.2c1.7,0,3,0.4,3.9,1.3c1,0.8,1.5,2.2,1.5,3.9c0,1.9-0.5,3.3-1.5,4.1
		C71.4,87.5,70,87.9,68.2,87.9z M69.8,84.5c0.4-0.4,0.7-1,0.7-1.9c0-0.9-0.2-1.5-0.7-1.8c-0.5-0.4-1.1-0.5-1.9-0.5h-3.2v4.8h3.2
		C68.7,85.1,69.3,84.9,69.8,84.5z"/>
	<path class="st2" d="M83.7,94.3c-2.4,0-4.1-0.6-5.4-1.9c-1.7-1.6-2.5-3.8-2.5-6.8c0-3,0.8-5.3,2.5-6.8c1.2-1.3,3-1.9,5.4-1.9
		c2.3,0,4.1,0.6,5.4,1.9c1.7,1.5,2.5,3.8,2.5,6.8c0,3-0.8,5.2-2.5,6.8C87.8,93.7,86,94.3,83.7,94.3z M86.9,89.9
		c0.8-1,1.2-2.4,1.2-4.3c0-1.8-0.4-3.3-1.2-4.3c-0.8-1-1.9-1.5-3.2-1.5c-1.4,0-2.4,0.5-3.3,1.5s-1.2,2.4-1.2,4.3
		c0,1.9,0.4,3.3,1.2,4.3s1.9,1.5,3.3,1.5C85,91.4,86.1,90.9,86.9,89.9z"/>
	<path class="st2" d="M101.2,87.4h-3.5v6.4h-3.4V77.4h8.1c1.2,0,2,0.2,2.7,0.4c0.6,0.3,1.1,0.6,1.6,1.1c0.4,0.4,0.6,0.9,0.8,1.4
		c0.2,0.5,0.3,1.1,0.3,1.7c0,0.8-0.2,1.5-0.6,2.3c-0.4,0.8-1,1.3-2,1.6c0.8,0.3,1.3,0.7,1.6,1.3c0.3,0.6,0.5,1.4,0.5,2.6V91
		c0,0.8,0,1.3,0.1,1.5c0.1,0.4,0.3,0.7,0.6,0.9v0.4h-3.8c-0.1-0.4-0.2-0.7-0.2-0.9c-0.1-0.5-0.1-0.9-0.1-1.4l0-1.5
		c0-1-0.2-1.7-0.6-2.1S102.2,87.4,101.2,87.4z M103.2,84.4c0.7-0.3,1-0.9,1-1.9c0-1-0.3-1.7-1-2c-0.4-0.2-0.9-0.3-1.7-0.3h-4v4.4
		h3.9C102.3,84.7,102.9,84.6,103.2,84.4z"/>
	<path class="st2" d="M120.3,90.5h-6.1l-1.1,3.4h-3.6l5.9-16.4h3.9l5.8,16.4h-3.7L120.3,90.5z M119.3,87.6l-2.1-6.5l-2.1,6.5H119.3z
		"/>
	<path class="st2" d="M137.4,77.4v2.9h-4.9v13.5h-3.5V80.3h-4.9v-2.9H137.4z"/>
	<path class="st2" d="M150.9,86.6h-8v4.2h9.1v3h-12.5V77.4h12.1v2.9h-8.7v3.5h8V86.6z"/>
</g>
</svg>
