<svg xmlns="http://www.w3.org/2000/svg" viewBox="0 0 250.566 77.07814"><title>logo-balidoo-black</title><path d="M135.773,48.414a11.7897,11.7897,0,1,1,13.048,10.251,11.80546,11.80546,0,0,1-13.048-10.251Zm27.361-36.952h-.872c-.844.445-1.16.344-1.916.989-1.699,1.445-1.076,5.016-1.076,7.868,0,1.969.111,10.853-.054,12.01-3.241-2.008-4.966-3.476-9.69-3.98a19.02723,19.02723,0,0,0-11.344,2.356c-14.248,8.389-11.348,28.449,2.334,33.638a18.60941,18.60941,0,0,0,20.27-4.207l1.526,4.138a34.36942,34.36942,0,0,0,4.166,7.47,39.44605,39.44605,0,0,0,24.646,16.044,40.63242,40.63242,0,0,0,5.163.65c1.952.143,3.512.312,4.748-.836a3.50829,3.50829,0,0,0,.672-4.3c-.93-1.476-1.848-1.653-4.072-1.759a32.44017,32.44017,0,0,1-20.725-8.332,25.60412,25.60412,0,0,1-2.866-2.947c-.414-.58-.813-1.027-1.29-1.608-2.979-3.636-5.311-9.539-6.104-14.206-.729-4.279-.449-17.614-.449-22.778,0-1.825.136-16.327-.068-17.418C165.723,12.045,163.623,11.696,163.134,11.462Z" transform="translate(-4.72 -11.462)"/><path d="M22.487,35.244a11.66,11.66,0,0,1,8.682,2.778c7.29,5.618,4.605,19.703-6.625,20.669A11.70705,11.70705,0,0,1,11.782,48.118c-.652-6.384,3.825-11.986,10.705-12.874ZM4.72,14.667V47.496c.258.63.086,6.566,4.393,11.475A18.75114,18.75114,0,0,0,40.14,55.593c6.343-11.965-2.297-27.201-16.316-27.327a17.95059,17.95059,0,0,0-6.928,1.178,21.00084,21.00084,0,0,0-3.925,2.034c-.444.264-.779.62-1.193.856-.342-2.646.248-15.091-.072-17.776-.256-2.166-1.854-2.539-2.876-3.096H7.857c-.974.478-1.313.252-2.096,1.043C5.031,13.246,5.185,13.703,4.72,14.667Z" transform="translate(-4.72 -11.462)"/><path d="M77.884,48.692A11.77215,11.77215,0,1,1,67.95,35.311a11.74468,11.74468,0,0,1,9.934,13.381Zm.123,12.947c.061,5.526,6.833,5.133,6.98.48.051-1.627,0-3.348,0-4.984,0-6.57.673-12.57-1.741-18.03-5.273-11.926-22.474-15.15-31.539-3.917a18.44428,18.44428,0,0,0-3.406,6.427,19.05454,19.05454,0,0,0,2.387,15.787c6.104,8.519,16.814,10.871,25.738,5.27A9.68314,9.68314,0,0,1,78.007,61.639Z" transform="translate(-4.72 -11.462)"/><path d="M204.51,48.14a11.77215,11.77215,0,1,1-10.404-12.878A11.71029,11.71029,0,0,1,204.51,48.14ZM190.016,28.479a18.83307,18.83307,0,0,0-11.918,6.857c-6.158,7.475-5.306,19.455,2.987,26.229a18.71382,18.71382,0,1,0,8.931-33.086Z" transform="translate(-4.72 -11.462)"/><path d="M230.839,39.136a7.95769,7.95769,0,0,1,2.744,15.677,7.98488,7.98488,0,0,1-7.737-12.721,7.7571,7.7571,0,0,1,4.993-2.956Zm16.283,9.214V45.816c-.472-1.051-.203-4.131-3.026-7.803a14.92771,14.92771,0,0,0-26.84,8.738c-.229,15.142,20.299,21.297,28.068,7.216C246.941,51.034,246.762,49.145,247.122,48.35Z" transform="translate(-4.72 -11.462)"/><path d="M99.003,11.462h-.97a4.27015,4.27015,0,0,0-2.651,2.058c-.527,1.084-.336,2.965-.336,4.309,0,9.352.168,19.474-.013,28.651a19.501,19.501,0,0,0,1.533,7.838,18.49016,18.49016,0,0,0,3.828,5.713,17.73446,17.73446,0,0,0,5.559,4.008,17.941,17.941,0,0,0,7.857,1.758,3.48333,3.48333,0,1,0-.003-6.965c-7.07-.384-11.724-5.26-11.776-12.214l-.009-28.65c0-1.415.206-3.205-.294-4.384C101.041,11.959,99.738,11.833,99.003,11.462Z" transform="translate(-4.72 -11.462)"/><path d="M116.533,25.473c-2.802.66-2.928,2.033-2.928,5.228l-.001,16.194c.004,2.956,2.159,4.266,4.271,3.785a3.69938,3.69938,0,0,0,2.267-1.746,7.69439,7.69439,0,0,0,.384-3.562l.004-16.199C120.523,26.876,118.816,24.934,116.533,25.473Z" transform="translate(-4.72 -11.462)"/><path d="M117.56,11.462h-1.004c-.776.381-4.087.847-3.969,4.708a4.47929,4.47929,0,1,0,6.598-4.124C118.711,11.775,118.06,11.706,117.56,11.462Z" transform="translate(-4.72 -11.462)"/><path d="M239.189,11.597h5.713v1.804h-1.949v6.693h-1.831V13.401h-1.933V11.597Zm7.54,0h2.183l1.593,5.089,1.596-5.089h2.104l1.081,8.497h-1.737l-.748-5.978-1.876,5.978h-.83l-1.919-6.031-.712,6.031H245.69Z" transform="translate(-4.72 -11.462)"/></svg>