<svg xmlns="http://www.w3.org/2000/svg" viewBox="0 0 61.4452 19.44059"><title>logo-balidoo-blog</title><path d="M32.1448,9.30645a2.93823,2.93823,0,0,1,2.5254-3.30391A2.88092,2.88092,0,0,1,37.8823,8.575a2.96834,2.96834,0,0,1-2.55,3.32915A2.90752,2.90752,0,0,1,32.1448,9.30645ZM38.8385,0h-.2207c-.1961.10088-.2942.07566-.4658.25221-.4169.35309-.2697,1.261-.2697,1.99244,0,.50441.0245,2.74906-.0246,3.02648A4.60162,4.60162,0,0,0,35.4794,4.2623a4.29707,4.29707,0,0,0-2.7707.6053,4.79118,4.79118,0,0,0,.564,8.4742,4.495,4.495,0,0,0,4.0456-.3027,5.17033,5.17033,0,0,0,.9318-.7566l.3677,1.0341a8.75284,8.75284,0,0,0,1.0298,1.8915,9.50124,9.50124,0,0,0,6.0318,4.0353c.4168.0757.8336.1261,1.275.1766.4904.0252.8581.0756,1.1524-.2018a.91233.91233,0,0,0,.1716-1.0845c-.2207-.3783-.4413-.4287-1.0053-.454a8.8686,8.8686,0,0,1-2.4029-.4539,7.87051,7.87051,0,0,1-2.6726-1.6394,6.58135,6.58135,0,0,1-.711-.7314,4.58672,4.58672,0,0,0-.3188-.4035,8.41694,8.41694,0,0,1-1.4956-3.5814c-.1717-1.08445-.0981-4.43881-.0981-5.75029,0-.454.0245-4.111-.0245-4.38841A.85343.85343,0,0,0,38.8385,0Z" fill="#fff"/><path d="M4.36442,5.97731a2.79389,2.79389,0,0,1,2.13317.70618A3.00543,3.00543,0,0,1,4.87932,11.9042a2.97569,2.97569,0,0,1-.5149-5.92689ZM0,.80706V9.07945A5.3848,5.3848,0,0,0,1.07885,11.9798a4.52211,4.52211,0,0,0,7.601-.8575A4.72482,4.72482,0,0,0,4.68317,4.23708a4.05947,4.05947,0,0,0-1.69183.30265,4.94644,4.94644,0,0,0-.95625.50441l-.29423.227c-.07355-.65574.049-3.80833-.02452-4.48929C1.64279.227,1.25048.15132,1.00529,0H.7601C.5149.1261.44135.07566.24519.25221.07356.42875.1226.55485,0,.80706Z" fill="#fff"/><path d="M17.948,9.38211A2.8932,2.8932,0,0,1,14.6624,11.879,2.95983,2.95983,0,0,1,12.235,8.47416a2.89636,2.89636,0,0,1,3.2611-2.47163A2.94724,2.94724,0,0,1,17.948,9.38211Zm.0245,3.25349c.0245,1.3871,1.6673,1.2862,1.7164.1261.0245-.4035,0-.8323,0-1.2611,0-1.66452.1716-3.17777-.4169-4.53969a4.58092,4.58092,0,0,0-8.5817.63052,4.84373,4.84373,0,0,0,.5885,3.98487,4.49834,4.49834,0,0,0,6.3014,1.3367A2.21742,2.21742,0,0,1,17.9725,12.6356Z" fill="#fff"/><path d="M48.9893,9.23063a2.87467,2.87467,0,0,1-3.163,2.64817,2.96824,2.96824,0,1,1,3.163-2.64817ZM45.434,4.28737A4.47649,4.47649,0,0,0,42.5162,6.0276a4.80915,4.80915,0,0,0,.7356,6.6078,4.51257,4.51257,0,0,0,3.5307.9836,4.69138,4.69138,0,0,0,3.8741-5.34676A4.59354,4.59354,0,0,0,45.434,4.28737Z" fill="#fff"/><path d="M55.4378,6.961a1.95784,1.95784,0,0,1,2.2558,1.61413,1.97519,1.97519,0,1,1-3.4572-.88272A1.92794,1.92794,0,0,1,55.4378,6.961Zm3.9967,2.32031V8.65082a4.57783,4.57783,0,0,0-.7356-1.96721,3.54387,3.54387,0,0,0-3.0159-1.488A3.5019,3.5019,0,0,0,53.2066,6.3053,3.82773,3.82773,0,0,0,52.1277,8.903a3.63722,3.63722,0,0,0,6.8654,1.81587A4.83324,4.83324,0,0,0,59.4345,9.28134Z" fill="#fff"/><path d="M23.1216,0h-.2452c-.1717.10088-.4659.1261-.6621.52964a3.15585,3.15585,0,0,0-.0735,1.08449c0,2.37074.049,4.918,0,7.23834a5.00951,5.00951,0,0,0,.3678,1.96723,4.95007,4.95007,0,0,0,.9317,1.4376,4.201,4.201,0,0,0,1.3731,1.0088,4.58774,4.58774,0,0,0,1.937.454.87047.87047,0,0,0,.7356-1.3367.79417.79417,0,0,0-.7356-.4036,2.95034,2.95034,0,0,1-2.8933-3.07689V1.68979A3.30176,3.30176,0,0,0,23.7836.58008.92489.92489,0,0,0,23.1216,0Z" fill="#fff"/><path d="M27.4125,3.53106c-.6866.17655-.7111.50442-.7111,1.31148V8.9283c0,.75662.5394,1.0845,1.0543.95839a.91732.91732,0,0,0,.564-.42876A2.10886,2.10886,0,0,0,28.4178,8.55V4.46423C28.3932,3.88415,27.9764,3.37974,27.4125,3.53106Z" fill="#fff"/><path d="M27.6821,0h-.2452c-.1962.10088-1.0053.20177-.9808,1.18538a1.09135,1.09135,0,0,0,2.1822.02522A1.20721,1.20721,0,0,0,28.0744.1261C27.9518.07566,27.8047.05044,27.6821,0Z" fill="#fff"/><path d="M57.4976.0249h1.3976v.454h-.4659V2.16866h-.4414V.47888h-.4658V.0249Zm1.8389,0h.5394l.3923,1.28626L60.6605.0249h.5149l.2698,2.14376h-.4169L60.8567.65542l-.4659,1.51324h-.1961L59.7288.65542l-.1716,1.51324h-.4414Z" fill="#fff"/></svg>