<svg width="212" height="15" viewBox="0 0 212 15" fill="none" xmlns="http://www.w3.org/2000/svg">
<line y1="-0.25" x2="16" y2="-0.25" transform="matrix(1 -8.74228e-08 -8.74228e-08 -1 126 7.51855)" stroke="black" stroke-width="0.5"/>
<line y1="-0.25" x2="121" y2="-0.25" transform="matrix(1 0 0 -1 0 7.51855)" stroke="black" stroke-width="0.5"/>
<line y1="-0.25" x2="16" y2="-0.25" transform="matrix(1 -8.74228e-08 -8.74228e-08 -1 146 7.51855)" stroke="black" stroke-width="0.5"/>
<line y1="-0.25" x2="16" y2="-0.25" transform="matrix(1 -8.74228e-08 -8.74228e-08 -1 167 7.51855)" stroke="black" stroke-width="0.5"/>
<path d="M200.1 14.0519L205 8.99053L206.645 10.6897C206.552 10.8704 206.488 11.0633 206.452 11.2681C206.418 11.473 206.4 11.6779 206.4 11.8827C206.4 12.6781 206.674 13.3589 207.222 13.9253C207.771 14.4917 208.43 14.7749 209.2 14.7749C209.97 14.7749 210.629 14.4917 211.178 13.9253C211.726 13.3589 212 12.6781 212 11.8827C212 11.0874 211.726 10.4065 211.178 9.84011C210.629 9.27372 209.97 8.99053 209.2 8.99053C209.002 8.99053 208.803 9.0086 208.605 9.04475C208.407 9.08091 208.22 9.14719 208.045 9.24359L206.4 7.54443L208.045 5.84527C208.22 5.94168 208.407 6.00796 208.605 6.04411C208.803 6.08026 209.002 6.09834 209.2 6.09834C209.97 6.09834 210.629 5.81515 211.178 5.24876C211.726 4.68237 212 4.0015 212 3.20615C212 2.4108 211.726 1.72993 211.178 1.16354C210.629 0.597158 209.97 0.313965 209.2 0.313965C208.43 0.313965 207.771 0.597158 207.222 1.16354C206.674 1.72993 206.4 2.4108 206.4 3.20615C206.4 3.41102 206.418 3.61588 206.452 3.82074C206.488 4.02561 206.552 4.21842 206.645 4.39918L198 13.3288V14.0519H200.1ZM202.9 6.82139L204.3 5.37529L200.1 1.03701H198V1.76006L202.9 6.82139ZM209.2 4.65225C208.815 4.65225 208.485 4.51065 208.211 4.22746C207.937 3.94426 207.8 3.60383 207.8 3.20615C207.8 2.80848 207.937 2.46804 208.211 2.18485C208.485 1.90166 208.815 1.76006 209.2 1.76006C209.585 1.76006 209.915 1.90166 210.189 2.18485C210.463 2.46804 210.6 2.80848 210.6 3.20615C210.6 3.60383 210.463 3.94426 210.189 4.22746C209.915 4.51065 209.585 4.65225 209.2 4.65225ZM205 7.90596C204.907 7.90596 204.825 7.8698 204.755 7.7975C204.685 7.72519 204.65 7.64084 204.65 7.54443C204.65 7.44803 204.685 7.36367 204.755 7.29137C204.825 7.21906 204.907 7.18291 205 7.18291C205.093 7.18291 205.175 7.21906 205.245 7.29137C205.315 7.36367 205.35 7.44803 205.35 7.54443C205.35 7.64084 205.315 7.72519 205.245 7.7975C205.175 7.8698 205.093 7.90596 205 7.90596ZM209.2 13.3288C208.815 13.3288 208.485 13.1872 208.211 12.904C207.937 12.6208 207.8 12.2804 207.8 11.8827C207.8 11.485 207.937 11.1446 208.211 10.8614C208.485 10.5782 208.815 10.4366 209.2 10.4366C209.585 10.4366 209.915 10.5782 210.189 10.8614C210.463 11.1446 210.6 11.485 210.6 11.8827C210.6 12.2804 210.463 12.6208 210.189 12.904C209.915 13.1872 209.585 13.3288 209.2 13.3288Z" fill="#1F1F1F"/>
</svg>
